<?xml version="1.0" encoding="UTF-8"?>
<svg xmlns="http://www.w3.org/2000/svg" onmouseup="{ if(window.parent.document.onmouseup) window.parent.document.onmouseup(arguments[0]);}" xml:space="preserve" enable-background="new 0 0 137.7 169.2" viewBox="0 0 137.7 169.2" y="0px" x="0px" id="Layer_1" version="1.1" xmlns:xlink="http://www.w3.org/1999/xlink"><path data-cppathid="10000" d="M37.1,91.6c2.9-1,5.2-2,5.2-3.5c0-2.1-2.3-3.3-5.2-4.2V91.6z" fill="none"/><path data-cppathid="10001" d="M27.9,101.4c0.1,1.3,2.3,1.9,4.2,2.3v-6.5C29.7,97.8,27.8,98.7,27.9,101.4z" fill="none"/><path data-cppathid="10002" d="M26.1,72.7c-0.1,3.1,3.5,4.5,6,5v-8.6C27.8,69.1,26.1,70.4,26.1,72.7z" fill="none"/><g><path data-cppathid="10003" d="M54.6,66.7c-0.1,5.1,5.8,7.5,10,8.4V60.8C57.4,60.7,54.6,62.9,54.6,66.7z" fill="#FFFFFF"/><path data-cppathid="10004" d="M57.6,114.5c0.1,2.2,3.9,3.2,6.9,3.8v-10.8C60.7,108.5,57.4,110,57.6,114.5z" fill="#FFFFFF"/><path data-cppathid="10005" d="M137.7,16.4C97.2,0.3,70.8,0.1,68.1,0.1c-3,0-23.7-1.9-68.1,15.8C1.1,24.2,0.6,102,0.6,102   s5.7,38.3,68.3,67.2c0,0,0,0,0,0c0,0,0,0,0,0c0,0,0.1,0.1,0.1,0c0,0,0,0-0.1,0c62.7-28.9,68.3-66.6,68.3-66.6   S136.6,24.8,137.7,16.4z M88.8,64.9c-6.6,3.4-11.9-1.1-13.4-3c-0.9-0.2-1.7-0.3-2.5-0.4V77c6.7,2.3,16.5,7.2,16.2,15.8   c-0.2,9.5-10.1,11.7-16.2,12.8v14.9c3.8,1.6,8,4,10.2,6.6c1.9,2.3,1.7,8.4,0.4,7.8c-2.1-3.9-6.1-5.9-10.6-7.2v14.4   c0,2.3-1.9,4.2-4.2,4.2s-4.2-1.9-4.2-4.2v-16.5c-7.5-1.7-14.2-3.9-14.4-12.4c-0.1-6.4,6.9-9.9,14.4-12.5V83.6   c-4.2-0.8-8.1-1.4-10.1-2.4c-4.9-2.5-13.6-10.3-7.4-21.7c3.1-5.6,10.6-7.3,17.5-7.6V37.3c0-0.5,0.1-0.9,0.2-1.3   c-3.4-1.7-5.8-5.2-5.8-9.2c0-5.7,4.6-10.3,10.3-10.3c5.7,0,10.3,4.6,10.3,10.3c0,4.4-2.8,8.2-6.8,9.6c0.1,0.3,0.1,0.6,0.1,0.9v14.9   c3,0.3,5,0.7,5,0.7s6.6-4.4,11.1,0.5c3.5-0.8,12,0.4,11.9,6.2C100.9,65.5,90.9,64.4,88.8,64.9z" fill="#FFFFFF"/><path data-cppathid="10006" d="M72.9,98.1c4.9-1.7,8.6-3.3,8.6-5.8c0-3.6-3.8-5.6-8.6-6.9V98.1z" fill="#FFFFFF"/><circle data-cppathid="10007" r="1.6" cy="55" cx="83.7" fill="#FFFFFF"/></g><g/><g/><g/><g/><g/><g/></svg>