<?xml version="1.0" encoding="UTF-8"?>
<svg xmlns="http://www.w3.org/2000/svg" onmouseup="{ if(window.parent.document.onmouseup) window.parent.document.onmouseup(arguments[0]);}" xml:space="preserve" enable-background="new 0 0 121.4 129.1" viewBox="0 0 121.4 129.1" y="0px" x="0px" id="Layer_1" version="1.1" xmlns:xlink="http://www.w3.org/1999/xlink"><g><path data-cppathid="10000" d="M73.7,93.9c-1.2-2.7-3.6-5.6-7.6-5.6c-0.7,0-1.4,0-2.1,0c3-1.3,3.9-4,3.8-6c0-1.6-0.3-2.6-0.3-2.7l-1.7,0.3   c0,0,0.3,1,0.3,2.4c-0.1,2.1-0.6,4.7-5.6,5.1c-0.1,0-1.4-0.1-2.8-0.8c-1.4-0.8-2.8-2.2-2.8-5.4c0-0.4,0-0.9,0.1-1.3l-1.6-0.2   c-0.1,0.5-0.1,1-0.1,1.5c0,3.7,1.8,5.9,3.7,6.8c0.2,0.1,0.4,0.2,0.6,0.3c-1.2,0-1.9,0-1.9,0h-0.1l-0.1,0c-0.1,0-8.3,2.1-8.4,11.1   v0.8h2.6c2,2.6,5.8,6.1,12,6.1c6.3,0,9.8-3.5,11.6-6.1l2,0l-0.1-0.9C75.3,99.2,75,96.6,73.7,93.9z M61.4,101c-2.1,0-4.1-0.3-6-0.8   h1.2l-0.1-0.8c0-0.3,0.1-1.9,1.1-3.3c-0.4,1.1-0.7,2.2-0.8,3.1c0,0.1,0,0.2,0,0.3l0.1,0.7l3.8,0l0.2-0.3l0.1,0.3l5.8,0l0.1-0.6   c0,0,0.1-0.6,0.1-1.4c0.2,0.4,0.3,0.8,0.3,1.2v0.8l0.4,0C65.8,100.7,63.6,101,61.4,101z M72.3,98.6l-3.5,0c-0.4-2.5-2.6-3.9-3-4.2   c0,0-0.1,0-0.1-0.1c0,0,0,0,0,0v0l0,0l-0.8,1.3c0,0,0,0,0.1,0.1c0.3,0.3,0.5,1.1,0.5,2c0,0.3,0,0.6,0,0.9l-3.4,0l-0.3-1.1l-0.6-1.8   l-1.4,2.9l-1.3,0c0.3-1.6,1.7-4.6,1.7-4.6l0.8-1.8l-1.8,0.7c-3.2,1.3-4,4.3-4.1,5.7h-4.1h-2c0-0.3,0.1-0.6,0.1-0.9   c0.4-2.9,1.9-4.8,3.5-6.1c0.9-0.7,1.8-1.2,2.5-1.5c0.5-0.2,0.9-0.3,1-0.4c0.7,0,4.8,0,10.2,0c3.2,0,5.1,2.3,6.2,4.7   c0.6,1.3,1,2.6,1.2,3.5c0,0.2,0.1,0.4,0.1,0.6L72.3,98.6z" fill="#FFFFFF"/><path data-cppathid="10001" d="M80.5,71.8c-3,0-5.5,2.5-5.5,5.5c0,3,2.4,5.5,5.5,5.5c3,0,5.4-2.5,5.4-5.5C85.9,74.2,83.5,71.8,80.5,71.8z" fill="#FFFFFF"/><path data-cppathid="10002" d="M41.7,71.8c-3,0-5.5,2.5-5.5,5.5c0,3,2.4,5.5,5.5,5.5c3,0,5.4-2.5,5.4-5.5C47.1,74.2,44.7,71.8,41.7,71.8z" fill="#FFFFFF"/><path data-cppathid="10003" d="M118.8,57.7c-1-3.1-1.9-5.5-2.4-6.6c-1.3-9.8-5.7-18.1-9.7-24c-1.3-1.9-2.5-3.5-3.6-4.9   c-1.8-2.2-3.2-3.8-4-4.5c-1.5-2.7-3.1-5-4.9-6.9c-2.8-3.2-6-5.6-9.1-7.2C79.8,0.8,74.4,0,70,0c-4.7,0-8.4,0.9-10.3,1.4   c-1.6-0.4-4.6-0.9-8.3-0.9c-4.1,0-9.1,0.6-14.3,3c-3.7,1.7-7.4,4.2-10.7,7.9c-1.1,1.2-2.2,2.6-3.2,4c-0.8,0.5-2,1.4-3.4,2.6   c-1.6,1.4-3.6,3.3-5.6,5.6C9.5,29.4,4.6,38.3,4.1,50.3C3.1,52.9,0,61.9,0,71c0,4.4,0.7,9.1,3.5,13.1c1.4,2,3.4,3.7,5.8,4.8   c1.9,0.9,4,1.4,6.4,1.6c2.9,9.5,8.4,16.1,13.8,20.2c5,3.9,9.8,5.9,12.5,6.8c0.6,1.3,1.6,3,3.2,4.8c2.9,3.3,8,6.8,15.2,6.8   c0,0,0.1,0,0.1,0c7.3,0,12.5-3.3,15.4-6.5c1.7-1.9,2.8-3.7,3.5-5c13.4-6.2,20.6-15.4,24.2-23.1c0.7-1.5,1.3-3,1.8-4.4   c2.7,0,5.1-0.5,7.2-1.4c3.3-1.4,5.8-4,7.1-6.9c1.3-2.9,1.7-6,1.8-9C121.4,67.3,120,61.9,118.8,57.7z M99.3,79.1v0.7c0,0,0,0,0,0.1   c0,0.9-0.4,6.2-3.6,12.4c-3.2,6.2-9.2,13.4-20.9,18.5l-1.6,0.7l-0.6,1.6c-0.1,0.2-1,2.4-2.9,4.3c-1.9,1.9-4.6,3.6-9.2,3.6   c-4.8,0-7.5-2-9.3-4.1c-0.9-1-1.6-2.1-2-2.9c-0.2-0.4-0.3-0.7-0.4-0.9c0-0.1-0.1-0.2-0.1-0.2l-0.7-2.2l-2.2-0.5c0,0,0,0-0.1,0   c-1.1-0.3-6.8-2.1-12.3-6.8c-4.7-4.1-9.3-10.2-11-19.9l0.2-1.2l0-0.4c0-1.1,0.4-9.2,4.9-16.8c2.4-4,5.8-7.9,11-10.8   c5.2-3,12.4-5,22.3-5c9.9,0,17.1,2.4,22.5,5.7c8.1,5.1,12.4,12.7,14.7,19.3C98.5,76,99,77.6,99.3,79.1L99.3,79.1z M99.2,66.7v-0.1   C99.2,66.6,99.2,66.6,99.2,66.7L99.2,66.7z M99.2,58.5c-0.2-0.3-0.5-0.6-0.7-0.9C98,57,97.5,56.4,97,55.8c-2.5-2.9-5.6-5.7-9.3-8   c-6.8-4.3-15.7-7-27-7c-11.1,0-19.8,2.4-26.4,6.1c-4.3,2.4-7.7,5.4-10.4,8.6c-0.5,0.6-0.9,1.1-1.4,1.7c0,0-0.1-0.1-0.2-0.1v0.4   c-1,1.3-1.8,2.6-2.6,4c0.6-1.5,1.4-3.1,2.3-4.6c0.1-0.1,0.1-0.2,0.2-0.4c0-0.1,0.1-0.2,0.1-0.2c0.3-0.4,0.5-0.9,0.8-1.3   c4.6-7.1,12-13.3,24.1-15.9c0.7-0.2,1.5-0.3,2.3-0.4c3.1-0.5,6.6-0.8,10.3-0.8c0.2,0,0.4,0,0.6,0c2.7,0,5.2,0.2,7.6,0.5   c0.5,0.1,1,0.1,1.5,0.2c14.7,2.1,23.1,9,28.1,16.8c0.1,0.2,0.2,0.3,0.3,0.4c0.3,0.5,0.6,1,0.9,1.6c0.1,0.1,0.1,0.2,0.2,0.3   c0.6,1.1,1.2,2.3,1.7,3.5C100.3,60.1,99.8,59.3,99.2,58.5z M112.8,75.1c-0.2,1.8-0.8,3.3-1.5,4.2c-0.4,0.5-0.9,0.9-1.6,1.3   c-0.5,0.1-0.9,0.1-1.4,0.1c-0.2-1.2-0.5-2.5-0.8-4c-0.3-1.2-0.7-2.6-1.1-4c-0.5-1.4-1-2.9-1.6-4.4c-0.3-1.4-0.7-2.8-1.2-4.2   c-0.8-2.6-2-5.3-3.5-7.9c1-0.8,2.2-2,3.1-3.5c1.2-1.9,1.9-4.3,1.4-7.1c0,0-0.5,1.1-1.4,2.7c-0.9,1.6-2.2,3.6-4,5.4   c-0.1,0.1-0.2,0.2-0.3,0.3C94,46.8,86,40.1,72.9,37.5c2-1.4,5.3-4.8,4.9-12.1c0,0-1.2,8.3-7.1,11.7c-3.1-0.5-6.5-0.8-10.2-0.8   c-0.2,0-0.4,0-0.6,0c-4.6,0-8.7,0.4-12.5,1.2C42,33.9,40.9,26,40.9,26c-0.4,6.9,2.6,10.4,4.6,11.9C34.2,40.7,27,46.7,22.4,53.6   c-0.1,0.1-0.2,0.2-0.2,0.4c-1.6-1.5-2.8-3.2-3.8-4.8c-1.4-2.3-2.2-4.2-2.2-4.2c-0.6,3.6,0.6,6.4,2.2,8.4c0.8,1.1,1.7,2,2.5,2.6   c-1.5,2.6-2.6,5.2-3.5,7.8c-1.1,3.1-1.8,6.1-2.2,8.8c-0.2,1-0.3,2-0.4,2.9c-0.1,0.4-0.1,0.7-0.2,1.1c-0.4,2.4-0.5,4.2-0.5,5.1   c0,0-0.1,0-0.1,0c-0.4-0.1-0.8-0.2-1.1-0.4c-0.5-0.2-0.9-0.5-1.3-0.8c-0.8-0.7-1.4-1.5-2-2.7C9.3,76.9,9,76,8.9,75.1   c-0.2-1.2-0.4-2.6-0.4-4.1c0-4,0.9-8.6,1.8-12.1c0-0.1,0-0.2,0.1-0.3c0.5-1.8,0.9-3.2,1.3-4.3c0,0,0-0.1,0-0.1   c0.2-0.5,0.3-0.9,0.4-1.2c0.1-0.3,0.1-0.4,0.1-0.4l0.3-0.7l0-0.7c0.2-5.1,1.3-9.5,2.8-13.2c0.9-2.1,1.9-4,3-5.7   c0.8-1.2,1.6-2.4,2.5-3.4c2-2.4,3.9-4.2,5.4-5.3c0.7-0.6,1.3-1,1.7-1.2c0.2-0.1,0.3-0.2,0.4-0.3c0,0,0.1-0.1,0.1-0.1l0.9-0.5   l0.6-0.9c3.3-5,7-7.9,10.8-9.6c1.3-0.6,2.6-1,3.9-1.4C47,9.3,49.4,9,51.4,9c2.2,0,4,0.2,5.3,0.5c0.6,0.1,1.1,0.2,1.5,0.3   c0.1,0,0.2,0.1,0.3,0.1c0,0,0,0,0,0c0,0,0.1,0,0.1,0l1.4,0.4l1.2-0.4l0.1-0.1c0.2-0.1,3.9-1.3,8.7-1.3c2.6,0,5.5,0.4,8.3,1.4   c0.9,0.3,1.9,0.7,2.8,1.2c3.8,2,7.5,5.3,10.7,11.2l0.3,0.6l0.5,0.5c0,0,0,0,0.1,0.1c0.7,0.6,4.1,4.2,7.5,9.4c1,1.5,2,3.2,2.9,4.9   c1.6,3.1,3,6.5,3.9,10.1c0.4,1.5,0.7,3.1,0.9,4.7l0.1,0.6l0.3,0.6c0,0,0,0.1,0.1,0.1c0,0.1,0.1,0.1,0.1,0.3   c0.3,0.8,1.1,2.7,1.9,5.2c1.2,3.8,2.5,8.9,2.5,13.2C112.9,73.6,112.9,74.4,112.8,75.1z" fill="#FFFFFF"/></g><g/><g/><g/><g/><g/><g/></svg>