<?xml version="1.0" encoding="UTF-8"?>
<svg xmlns="http://www.w3.org/2000/svg" onmouseup="{ if(window.parent.document.onmouseup) window.parent.document.onmouseup(arguments[0]);}" xml:space="preserve" enable-background="new 0 0 114.9 129.5" viewBox="0 0 114.9 129.5" y="0px" x="0px" id="Layer_1" version="1.1" xmlns:xlink="http://www.w3.org/1999/xlink"><g><circle data-cppathid="10000" r="5.4" cy="25" cx="33.8" fill="#FFFFFF"/><circle data-cppathid="10001" r="5.4" cy="25" cx="79.2" fill="#FFFFFF"/><path data-cppathid="10002" d="M38.9,81.6L39,63.4h6.6l-6.5-22.2c0,0-0.7-1.2,0.5-1.7c1.2-0.5,1.1,1.1,1.1,1.1l3.3,11c0,0,1.6,2.8,3.2,2.1   c1.6-0.7,0.6-3.4,0.6-3.4s-3.7-10.6-5.1-14.5c-1.5-3.9-4.5-3.9-4.5-3.9h-9.4l-1.1,0.1c-1.7,0.2-3.5,4.3-3.5,4.3l-5,14.7   c0,0-1.1,2.2,0.8,2.7c1.9,0.5,2.9-1.3,2.9-1.3l3.6-11.9c0,0-0.1-1.3,1.1-1c1.2,0.3,0.3,1.4,0.3,1.4l-6.6,22.6l6.7-0.1v18   c0,0,0.9,2.8,2.7,2.8c1.8,0,2.3-2.6,2.3-2.6l0.1-18.2l0.9,0.1L34,81.5c0,0,0.2,2.6,2.5,2.6C38.9,84.1,38.9,81.6,38.9,81.6z" fill="#FFFFFF"/><path data-cppathid="10003" d="M87,80.6l0.1-40c0,0-0.2-0.7,0.6-0.7s0.7,0.8,0.7,0.8l-0.1,13.7c0,0,0.1,2.4,2.1,2.4c2,0,1.5-2.6,1.5-2.6   s0-14,0-18.3c0-4.3-5.7-5.2-5.7-5.2h-6.4c0,0-0.5,0-6.1,0C68.1,30.7,67,36,67,36l0.1,18.9c0,0,0.1,1.8,1.6,1.8c1.6,0,2.1-2,2.1-2   V40.4c0,0-0.2-0.5,0.7-0.5c0.9,0,0.7,0.6,0.7,0.6v40c0,0,0.4,3.7,3.4,3.7c2.9,0,3.3-3.6,3.3-3.6V58.4c0,0-0.2-1,0.8-1   c1,0,0.6,1,0.6,1l0.1,22.1c0,0-0.2,3.5,3.2,3.5C87,84,87,80.6,87,80.6z" fill="#FFFFFF"/><rect data-cppathid="10004" height="69" width="5.2" fill="#FFFFFF" y="16.9" x="53.8"/><path data-cppathid="10005" d="M33.1,99.4v-0.2c1.6-1.1,2.4-2.3,2.4-3.5l-0.2-1.2c0-1.8-1.7-2.9-5.2-3.4h-5.2c-1.1,0-1.7,0.4-1.7,1.3   l0.2,1v12.6l-0.2,1.2c0,1,0.8,1.5,2.4,1.5h3.2c4.9,0,7.4-1.6,7.4-4.7c0-1-0.3-1.9-0.8-2.7L33.1,99.4z M26.8,94.3   c0-1,0.5-1.5,1.5-1.5l0.2,0.2H30c1.1,0.7,1.7,1.4,1.7,2.2v0.3c0,2-1.2,3-3.5,3c-0.9,0-1.3-0.4-1.3-1.2V94.3z M29,106.9v-0.2   l-0.5,0.2c-1.1,0-1.7-0.4-1.7-1.2v-3.9c0-1,0.4-1.5,1.3-1.5c2.7,0,4,1,4,2.9C32,105.7,30.9,106.9,29,106.9z" fill="#FFFFFF"/><path data-cppathid="10006" d="M45,91.1h-1.2c-0.6,0-1.1,0.4-1.5,1.2c-0.9,3.6-2.4,8.8-4.5,15.5c0.2,0.5,0.4,0.8,0.7,0.8h0.8   c0.2,0,0.5-0.4,1-1.3c0-1.8,0.6-2.7,1.8-2.7h3c0.7,0,1,0.4,1,1.2c0.3,2,1.1,3,2.4,3h0.8c0.4,0,0.9-0.2,1.3-0.7l-3.9-14   C46.5,92.1,45.9,91.1,45,91.1z M44.8,102.7h-1.5c-1.2,0-1.8-0.2-1.8-0.7c1-3.6,1.6-5.4,2-5.4h0.2c0.4,0,1.1,1.8,1.8,5.4L44.8,102.7   z" fill="#FFFFFF"/><path data-cppathid="10007" d="M62.9,91.3c-0.6,0.3-0.8,0.8-0.8,1.7v4.5l0.2,3.7l-0.5,0.3h-0.2c-0.4-0.1-1-1-1.8-2.7c-2.4-5-4-7.6-5-7.6   h-1l-0.8,0.8v15.5c0,0.6,0.2,1,0.7,1.2H54c0.4-0.2,0.7-0.6,0.7-1.2v-7.2l-0.2-0.8h0.2c0-0.7,0.1-1,0.3-1h0.5l2,3.4   c2.2,4.7,3.7,7.1,4.5,7.1h0.2l0.2-0.2l0.5,0.2c0.7,0,1.1-0.4,1.2-1.3V92l-0.7-0.7H62.9z" fill="#FFFFFF"/><path data-cppathid="10008" d="M73.2,90.6c-1,0-2.2,0.3-3.7,0.8c-2.1,1.1-3.2,4-3.2,8.6c0,1.5,0.3,3.3,0.8,5.2c1.2,2.5,3.2,3.7,6.1,3.7   l1.7-0.3c3.3-0.9,4.9-3.6,4.9-8.2v-2.5c-0.4-2.7-1.1-4.4-1.9-5C78,91.8,76.4,91.1,73.2,90.6z M75.9,101.2c0,3.8-1,5.7-2.9,5.7h-0.3   c-1.7,0-2.5-2.4-2.5-7.2V99c0-3.9,0.7-6.1,2.2-6.6h0.7c1.9,0,2.9,2,2.9,5.9V101.2z" fill="#FFFFFF"/><path data-cppathid="10009" d="M89.7,98.7c-3.7-1.5-5.5-2.6-5.5-3.4v-1.2c0.6-1,1.6-1.5,3-1.5h0.2c0.5,0,1.4,0.3,2.5,0.8   c0.4,1.8,0.9,2.7,1.5,2.7c0.8-0.3,1.2-0.8,1.2-1.5c-0.7-2.7-2.5-4-5.2-4l-1.9,0.2c-2.6,1.1-3.9,2.6-3.9,4.5v1c0,1.4,0.8,2.8,2.5,4   c3.9,1.5,5.9,2.8,5.9,4c0,1.3-1,2.2-2.9,2.7c-1.7,0-3-0.7-3.7-2.2c0-1.5-0.3-2.2-1-2.2c-0.7,0.3-1,0.7-1,1l0.2,1.7   c0.9,2.4,2.6,3.5,5.2,3.5h0.8c3.7-0.6,5.5-2.3,5.5-5v-0.7C93.2,101.3,92,99.8,89.7,98.7z" fill="#FFFFFF"/><path data-cppathid="10010" d="M106.5,0L8.4,0C3.8,0,0,3.8,0,8.4v112.8c0,4.6,3.8,8.4,8.4,8.4l98.1,0c4.6,0,8.4-3.8,8.4-8.4V8.4   C114.9,3.8,111.1,0,106.5,0z M108.4,121.1c0,1.1-0.9,1.9-1.9,1.9H8.4c-1.1,0-1.9-0.9-1.9-1.9V8.4c0-1.1,0.9-1.9,1.9-1.9h98.1   c1.1,0,1.9,0.9,1.9,1.9V121.1z" fill="#FFFFFF"/></g><g/><g/><g/><g/><g/><g/></svg>